# xmcd
#
# Track frame offsets: 
#        150
#        17994
#        31186
#        48981
#        61484
#        77520
#        93222
#        110233
#        124085
#        142478
#
# Disc length: 2089 seconds
#
# Revision: 1
# Processed by: cddbd v1.5.2PL0 Copyright (c) Steve Scherf et al.
# Submitted via: ExactAudioCopyFreeDBPlugin 1.0
#
DISCID=8908270a
DTITLE=Amelia Curran - Spectators
DYEAR=2012
DGENRE=Acoustic
TTITLE0=Years
TTITLE1=What Will You Be Building
TTITLE2=The Modern Man
TTITLE3=Blackbird On Fire
TTITLE4=The Great Escape
TTITLE5=Strangers
TTITLE6=Soft Wooden Towers
TTITLE7=San Andreas Fault
TTITLE8=In A Town
TTITLE9=Face On The News
EXTD=
EXTT0=
EXTT1=
EXTT2=
EXTT3=
EXTT4=
EXTT5=
EXTT6=
EXTT7=
EXTT8=
EXTT9=
PLAYORDER=
